<svg width="21" height="20" viewBox="0 0 21 20" fill="none" xmlns="http://www.w3.org/2000/svg">
<path d="M20.2949 11.8595V19.2385H16.0169V12.3535C16.0169 10.6235 15.3979 9.4435 13.8499 9.4435C12.6679 9.4435 11.9639 10.2395 11.6549 11.0085C11.5419 11.2835 11.5129 11.6665 11.5129 12.0515V19.2385H7.23294C7.23294 19.2385 7.29094 7.5785 7.23294 6.3695H11.5129V8.1935L11.4849 8.2355H11.5129V8.1935C12.0809 7.3185 13.0959 6.0675 15.3689 6.0675C18.1839 6.0675 20.2949 7.9075 20.2949 11.8595ZM2.75694 0.166504C1.29394 0.166504 0.335938 1.1265 0.335938 2.3895C0.335938 3.6245 1.26594 4.6135 2.70094 4.6135H2.72894C4.22194 4.6135 5.14894 3.6245 5.14894 2.3895C5.12294 1.1265 4.22294 0.166504 2.75794 0.166504H2.75694ZM0.589938 19.2385H4.86794V6.3695H0.589938V19.2385Z" fill="#E2E8F0"/>
</svg>
